<svg version="1" xmlns="http://www.w3.org/2000/svg" width="844" height="844" viewBox="0 0 633.000000 633.000000"><path d="M300 1.1c-25.2 1.2-49.5 5.4-74.7 12.9C114.8 47.1 30 139.9 7 253 2.6 274.7.9 292.6.9 316.5c0 55.3 12.9 105.5 39.4 153.4l5.2 9.4 29-.7c15.9-.4 32.2-1.1 36-1.6 3.9-.5 25.1-.9 47.2-1 24.8 0 41.2-.4 42.9-1 1.4-.6 4.7-2.8 7.1-5 7.2-6.3 11.7-8 21-8 5.2 0 8.4-.4 9.1-1.3 1.1-1.3 3.4-15.7 3.5-22.2 0-2.2-.3-8-.7-12.8l-.8-8.8-7.2-8.2c-14.7-16.7-16.6-20.5-25-50.4-1.8-6.3-2.6-11.6-2.6-16.9 0-4.3-.4-9.1-.9-10.8-.5-1.7-1.4-4.9-1.9-7.1-.5-2.2-1.9-6.5-3.1-9.5-1.2-3-2.1-6.5-2.1-7.8 0-1.4-1.7-7-3.9-12.6-7.7-20.2-9.2-35.4-4.2-42.4 3.6-5.1 3.2-10-2.9-39.2-.6-3-1.3-7.1-1.6-9-.5-3.1-.4-3.3.9-1.8 2.5 3.1 3 2 2.5-5.7-.3-4.2-.1-7.8.3-8.1.5-.3.9-1.5.9-2.7 0-1.2.9-3.3 2-4.7 1.1-1.4 2-3.7 2-5.2s.4-2.9.9-3.2c.5-.3 1.9-2.7 3.1-5.2 1.9-4.1 2.1-6.1 1.9-16-.2-7.9 0-11.7.9-12.6.7-.7 1.2-2.1 1.2-3.2 0-3.3 6.5-13.8 13.3-21.3 3.6-3.9 8.8-9.9 11.6-13.3 2.9-3.4 6.4-7.2 7.9-8.4 3.7-3 10.7-7.6 11.5-7.6 1 0 9.7-6.1 9.7-6.9 0-1.3 6.5-4.6 9.4-4.8 1.6-.1 4.8-1.5 7.1-3.2 3.6-2.6 5.3-3.1 9.7-3.1 3 0 7.4-.7 9.9-1.5 2.4-.8 8.5-1.9 13.4-2.4 5-.5 11.4-1.5 14.3-2.2 3.9-.9 5.9-.9 7.5-.1 5.3 2.7 12.7 4.4 18.2 4.5 4.9 0 6.6.4 9.5 2.6 2.5 1.8 4.8 2.6 8 2.7 2.5.1 5.8.6 7.3 1.3 1.6.6 3.2 1.1 3.7 1.1s2.5.9 4.4 2.1c1.9 1.1 4.3 1.9 5.3 1.8 2.6-.3 5.1 1 11.3 5.8 3 2.4 6.2 4.3 7.2 4.3 1.7 0 7.8 7.6 11.2 14 1 1.9 2.9 4.8 4.2 6.3 1.3 1.6 2.4 3.3 2.4 3.8s1.8 2.9 4.1 5.3c4.3 4.7 10.8 18.6 11.6 24.6.3 1.9 1 4.8 1.8 6.5.7 1.6 1.8 6.4 2.5 10.5 1.3 8 3.4 11 7.5 11 2.2 0 2.2.3 2.8 17.2.4 9.5.7 22.5.7 28.8v11.4l3.4 3.6c3.1 3.3 3.5 4.4 5.6 17.4 1.8 11 2 14.6 1.2 17.5-.6 2-1.4 7.6-1.7 12.6-.3 4.9-1.3 13-2.1 18-.8 4.9-1.9 11.7-2.4 15-.6 3.3-1.5 10.8-2 16.8-.6 5.9-1.3 11.3-1.6 12.1-.3.7-.9 5.3-1.4 10.2-2.2 22.1-8.1 36.2-20.5 49.6-7 7.4-7.3 7.9-7.7 13.5-.3 3.2-.3 13.2 0 22.3l.5 16.5 4.3 8.5c8.8 17.6 14.5 23 24.8 23.6 5.5.3 12 1.5 37.6 6.8 8.5 1.7 34.5 5.9 46.5 7.5 4.4.6 15.2 1.3 24 1.6l16 .6 6.1-9.3c27.6-42.3 44.2-88.2 49.9-138.3 2.1-18.4 2.1-51.6 0-70-10.2-89.1-56.3-168.1-129-221C443.5 18.3 373.9-2.2 300 1.1z"/></svg>